# xmcd
#
# Track frame offsets:
#	150
#	11425
#	25345
#	37965
#	50122
#	67307
#	78847
#	91967
#	104310
#	117347
#	130705
#	145900
#	159207
#	171047
#
# Disc length: 2409 seconds
#
# Revision: 1
# Processed by: cddbd v1.5.2PL0 Copyright (c) Steve Scherf et al.
# Submitted via: EasyCDDAExtractor 12.0.1.1
#
DISCID=b109670e
DTITLE=Kentucky - Forever
DYEAR=1992
DGENRE=Country
TTITLE0=Roll Out The Red Carpet
TTITLE1=Colors
TTITLE2=Put Another Nickel In
TTITLE3=Amerikabrevet
TTITLE4=Startin´ Over Again
TTITLE5=Singin´A Song
TTITLE6=Roll On Big Mama
TTITLE7=Why Should I
TTITLE8=Honky Tonk Bar
TTITLE9=Let's Have A Little Party
TTITLE10=My Heroes Have Always Been Cowboys
TTITLE11=Den Odödliga Hästen
TTITLE12=Cold Summerdays In Georgia
TTITLE13=Just In Case
EXTD=
EXTT0=
EXTT1=
EXTT2=
EXTT3=
EXTT4=
EXTT5=
EXTT6=
EXTT7=
EXTT8=
EXTT9=
EXTT10=
EXTT11=
EXTT12=
EXTT13=
PLAYORDER=
